HIERARCHY
ROOT Hips
{
	OFFSET 0.00000 0.00000 0.00000
	CHANNELS 6 Xposition Yposition Zposition Zrotation Yrotation Xrotation 
	JOINT LHipJoint
	{
		OFFSET 0 0 0
		CHANNELS 3 Zrotation Yrotation Xrotation
		JOINT LeftUpLeg
		{
			OFFSET 1.61024 -1.73873 0.75100
			CHANNELS 3 Zrotation Yrotation Xrotation
			JOINT LeftLeg
			{
				OFFSET 2.29819 -6.31424 0.00000
				CHANNELS 3 Zrotation Yrotation Xrotation
				JOINT LeftFoot
				{
					OFFSET 2.76618 -7.60002 0.00000
					CHANNELS 3 Zrotation Yrotation Xrotation
					JOINT LeftToeBase
					{
						OFFSET 0.16838 -0.46263 2.02361
						CHANNELS 3 Zrotation Yrotation Xrotation
						End Site
						{
							OFFSET 0.00000 -0.00000 1.04662
						}
					}
				}
			}
		}
	}
	JOINT RHipJoint
	{
		OFFSET 0 0 0
		CHANNELS 3 Zrotation Yrotation Xrotation
		JOINT RightUpLeg
		{
			OFFSET -1.46153 -1.73873 0.75100
			CHANNELS 3 Zrotation Yrotation Xrotation
			JOINT RightLeg
			{
				OFFSET -2.38373 -6.54924 0.00000
				CHANNELS 3 Zrotation Yrotation Xrotation
				JOINT RightFoot
				{
					OFFSET -2.80314 -7.70157 0.00000
					CHANNELS 3 Zrotation Yrotation Xrotation
					JOINT RightToeBase
					{
						OFFSET -0.16142 -0.44349 2.02101
						CHANNELS 3 Zrotation Yrotation Xrotation
						End Site
						{
							OFFSET -0.00000 -0.00000 1.04381
						}
					}
				}
			}
		}
	}
	JOINT LowerBack
	{
		OFFSET 0 0 0
		CHANNELS 3 Zrotation Yrotation Xrotation
		JOINT Spine
		{
			OFFSET -0.01629 1.66985 0.14750
			CHANNELS 3 Zrotation Yrotation Xrotation
			JOINT Spine1
			{
				OFFSET 0.02086 1.62378 0.20980
				CHANNELS 3 Zrotation Yrotation Xrotation
				JOINT Neck
				{
					OFFSET 0 0 0
					CHANNELS 3 Zrotation Yrotation Xrotation
					JOINT Neck1
					{
						OFFSET -0.05690 1.78719 0.08702
						CHANNELS 3 Zrotation Yrotation Xrotation
						JOINT Head
						{
							OFFSET 0.16035 1.73871 -0.38470
							CHANNELS 3 Zrotation Yrotation Xrotation
							End Site
							{
								OFFSET 0.05645 1.80914 -0.14081
							}
						}
					}
				}
				JOINT LeftShoulder
				{
					OFFSET 0 0 0
					CHANNELS 3 Zrotation Yrotation Xrotation
					JOINT LeftArm
					{
						OFFSET 2.83089 1.66494 -0.46008
						CHANNELS 3 Zrotation Yrotation Xrotation
						JOINT LeftForeArm
						{
							OFFSET 5.54893 -0.00000 -0.00000
							CHANNELS 3 Zrotation Yrotation Xrotation
							JOINT LeftHand
							{
								OFFSET 3.02898 -0.00000 -0.00000
								CHANNELS 3 Zrotation Yrotation Xrotation
								JOINT LeftFingerBase
								{
									OFFSET 0 0 0
									CHANNELS 3 Zrotation Yrotation Xrotation
									JOINT LeftHandIndex1
									{
										OFFSET 0.64095 -0.00000 -0.00000
										CHANNELS 3 Zrotation Yrotation Xrotation
										End Site
										{
											OFFSET 0.51675 -0.00000 -0.00000
										}
									}
								}
								JOINT LThumb
								{
									OFFSET 0 0 0
									CHANNELS 3 Zrotation Yrotation Xrotation
									End Site
									{
										OFFSET 0.52464 -0.00000 0.52464
									}
								}
							}
						}
					}
				}
				JOINT RightShoulder
				{
					OFFSET 0 0 0
					CHANNELS 3 Zrotation Yrotation Xrotation
					JOINT RightArm
					{
						OFFSET -2.84442 1.45761 -0.18088
						CHANNELS 3 Zrotation Yrotation Xrotation
						JOINT RightForeArm
						{
							OFFSET -5.35190 -0.00000 -0.00000
							CHANNELS 3 Zrotation Yrotation Xrotation
							JOINT RightHand
							{
								OFFSET -3.02531 -0.00000 -0.00000
								CHANNELS 3 Zrotation Yrotation Xrotation
								JOINT RightFingerBase
								{
									OFFSET 0 0 0
									CHANNELS 3 Zrotation Yrotation Xrotation
									JOINT RightHandIndex1
									{
										OFFSET -0.78389 -0.00000 -0.00000
										CHANNELS 3 Zrotation Yrotation Xrotation
										End Site
										{
											OFFSET -0.63199 -0.00000 -0.00000
										}
									}
								}
								JOINT RThumb
								{
									OFFSET 0 0 0
									CHANNELS 3 Zrotation Yrotation Xrotation
									End Site
									{
										OFFSET -0.64164 -0.00000 0.64164
									}
								}
							}
						}
					}
				}
			}
		}
	}
}
MOTION
Frames: 16
Frame Time: .0083333
0.6583 17.7563 -0.0711 0 0 0 0 0 0 -21 0 0 0 0 0 0 0 0 0 0 0 0 0 0 21 0 0 0 0 0 0 0 0 0 0 0 0 0 0 0 0 0 0 0 0 0 0 -16 0 0 21 0 0 11 0 0 0 -8 0 0 0 0 0 0 0 0 0 0 0 0 0 0 0 0 0 0 0 0 8 0 0 0 0 0 0 0 0 0 0 0 0 0 0 0 0 0
0.6583 17.7563 -0.0711 176.4390 89.6598 -162.8310 0.0000 0.0000 0.0000 -16.2730 -25.6473 -1.8569 0.0000 0.0000 0.0000 -0.6426 18.7834 -20.3135 0.1367 -2.3827 -6.5646 0.0000 0.0000 0.0000 12.9887 21.6502 -11.1828 -0.5384 -4.7016 13.0594 0.2120 -19.5133 -25.8725 -0.4544 4.3247 -11.9919 -3.1201 -2.3573 -14.7369 1.1437 -1.9376 -12.1849 2.7222 -0.3522 -4.5637 -5.0565 -2.1511 -10.5844 8.0498 -3.4544 21.0614 3.2259 -1.0943 8.5086 -0.0000 -0.0000 0.0000 -54.0649 6.3906 -12.4707 52.4441 -53.9349 -28.1382 -0.0000 0.0000 -36.0544 22.9504 17.1141 7.1031 -7.1250 0.0000 -0.0000 -4.8201 48.4092 -0.4062 -0.0000 -0.0000 0.0000 45.4134 -6.6785 8.5776 -58.2360 55.8213 -32.8775 0.0000 -0.0000 -29.1964 -29.5060 19.1118 -10.4971 7.1250 -0.0000 -0.0000 -0.8067 -8.2715 -0.6823
0.6587 17.7554 -0.0542 181.3010 89.6367 -158.0540 0.0000 0.0000 0.0000 -16.2090 -25.6123 -1.7548 0.0000 0.0000 0.0000 -0.6124 18.6555 -20.4310 0.1324 -2.3453 -6.4610 0.0000 0.0000 0.0000 13.1149 21.5744 -11.0879 -0.5358 -4.6902 13.0270 0.1895 -19.3924 -25.8835 -0.4452 4.2810 -11.8686 -3.1498 -2.3938 -14.6924 1.1977 -2.0036 -12.0018 2.7878 -0.3967 -4.3781 -5.1527 -2.1181 -10.5003 8.1069 -3.3924 20.5900 3.2582 -1.0818 8.3319 -0.0000 0.0000 0.0000 -55.2002 6.9615 -12.6590 52.9061 -54.1024 -28.5120 -0.0000 0.0000 -35.5573 22.4530 17.1509 6.9480 -7.1250 0.0000 -0.0000 -5.3066 48.3734 -0.4427 -0.0000 0.0000 0.0000 46.2971 -7.4267 9.3759 -59.0253 56.0446 -33.5313 0.0000 -0.0000 -27.7438 -29.4590 19.6459 -10.7524 7.1250 -0.0000 -0.0000 -0.7077 -7.6876 -0.6067
0.6566 17.7561 -0.0361 188.0550 89.5582 -151.3890 0.0000 0.0000 0.0000 -16.0940 -25.6236 -1.6698 0.0000 0.0000 0.0000 -0.6279 18.7101 -20.3488 0.1396 -2.4082 -6.6353 0.0000 0.0000 0.0000 13.2973 21.4471 -11.0427 -0.5388 -4.7029 13.0632 0.1783 -19.3010 -25.8425 -0.4541 4.3230 -11.9871 -3.1498 -2.4123 -14.5997 1.2176 -2.0504 -11.8270 2.8038 -0.4339 -4.2305 -5.2001 -2.1056 -10.4385 8.1935 -3.3730 20.1297 3.2880 -1.0814 8.1671 -0.0000 0.0000 0.0000 -56.3050 7.4279 -12.8014 53.1575 -54.1922 -28.7158 -0.0000 0.0000 -34.8629 21.9718 17.0188 6.7346 -7.1250 0.0000 -0.0000 -5.7362 48.1621 -0.4489 -0.0000 0.0000 0.0000 47.3074 -8.2409 10.0325 -59.7020 56.2300 -34.0932 0.0000 -0.0000 -26.2943 -29.5032 20.1343 -11.0219 7.1250 -0.0000 -0.0000 -0.6715 -7.1377 -0.5829
0.6563 17.7556 -0.0186 180.1210 89.4946 -159.3980 0.0000 0.0000 0.0000 -16.1131 -25.6752 -1.5804 0.0000 0.0000 0.0000 -0.6720 18.8681 -20.1203 0.1730 -2.6795 -7.3876 0.0000 0.0000 0.0000 13.3453 21.2541 -11.0255 -0.5411 -4.7129 13.0915 0.1599 -19.1626 -25.7947 -0.4493 4.3004 -11.9235 -3.2822 -2.4499 -14.5549 1.2279 -2.1043 -11.6664 2.8822 -0.4653 -4.0701 -5.3066 -2.1032 -10.3470 8.2850 -3.3588 19.7230 3.3303 -1.0864 8.0169 -0.0000 0.0000 0.0000 -57.3829 8.1107 -12.6025 53.6384 -54.3615 -29.1062 -0.0000 0.0000 -34.4114 21.8073 17.0018 6.6730 -7.1250 0.0000 -0.0000 -5.8893 48.1199 -0.4548 -0.0000 0.0000 0.0000 48.2863 -9.0201 10.6777 -60.1907 56.3605 -34.4998 0.0000 -0.0000 -24.9243 -29.7527 20.5376 -11.3393 7.1250 -0.0000 -0.0000 -0.7748 -6.6406 -0.6800
0.6569 17.7556 -0.0003 178.5540 89.4381 -161.0550 0.0000 0.0000 0.0000 -16.0926 -25.6903 -1.4702 0.0000 -0.0000 -0.0000 -0.6621 18.8338 -20.1741 0.1614 -2.5880 -7.1338 0.0000 0.0000 0.0000 13.4266 21.2199 -10.9366 -0.5435 -4.7234 13.1213 0.1176 -19.0041 -25.9209 -0.4086 4.1035 -11.3681 -3.3361 -2.4317 -14.6149 1.1903 -2.0899 -11.4650 2.8706 -0.4721 -3.8186 -5.3573 -2.1232 -10.0687 8.3763 -3.3823 19.1248 3.3560 -1.1123 7.7723 0.0000 -0.0000 0.0000 -58.3013 8.8128 -12.1001 54.1104 -54.5245 -29.4902 -0.0000 0.0000 -34.2677 21.8864 17.1827 6.7680 -7.1250 0.0000 -0.0000 -5.8573 48.3222 -0.4816 0.0000 -0.0000 0.0000 49.4086 -9.8256 11.0585 -60.4789 56.4362 -34.7398 0.0000 -0.0000 -23.4511 -29.7192 21.1628 -11.6446 7.1250 -0.0000 -0.0000 -0.6671 -5.9557 -0.5943
0.6549 17.7573 0.0157 175.2800 89.3425 -164.3860 0.0000 0.0000 0.0000 -16.0757 -25.7716 -1.4155 0.0000 -0.0000 -0.0000 -0.6611 18.8467 -20.2124 0.1610 -2.5848 -7.1250 0.0000 0.0000 0.0000 13.4719 21.2159 -10.8900 -0.5474 -4.7398 13.1679 0.0993 -18.9563 -26.0056 -0.3890 4.0049 -11.0904 -3.3404 -2.4210 -14.6303 1.1428 -2.0899 -11.2958 2.8204 -0.4869 -3.6270 -5.4471 -2.1175 -9.8406 8.4779 -3.3665 18.6268 3.3979 -1.1181 7.5692 -0.0000 0.0000 0.0000 -59.2525 9.4869 -11.6446 54.4591 -54.6429 -29.7743 -0.0000 0.0000 -34.1653 21.7575 17.3069 6.7711 -7.1250 0.0000 -0.0000 -6.0112 48.4337 -0.5109 -0.0000 0.0000 0.0000 50.5157 -10.5870 11.4467 -60.5977 56.4671 -34.8389 0.0000 -0.0000 -21.9011 -29.5608 21.9319 -11.9608 7.1250 -0.0000 -0.0000 -0.4594 -5.1411 -0.4164
0.6537 17.7577 0.0327 174.4300 89.2772 -165.4100 0.0000 0.0000 0.0000 -16.0910 -25.7759 -1.2263 0.0000 -0.0000 -0.0000 -0.6711 18.8895 -20.1743 0.1680 -2.6405 -7.2793 0.0000 0.0000 0.0000 13.6010 21.2319 -10.6722 -0.5492 -4.7474 13.1894 0.0953 -18.9914 -26.0902 -0.3797 3.9576 -10.9573 -3.3398 -2.4012 -14.4494 1.0977 -2.0902 -11.1280 2.7749 -0.5021 -3.5409 -5.4780 -2.1204 -9.7113 8.5518 -3.3678 18.2126 3.4202 -1.1269 7.4124 -0.0000 -0.0000 0.0000 -60.2902 10.0677 -11.4338 54.6167 -54.6959 -29.9029 -0.0000 0.0000 -33.7520 21.3176 17.3290 6.6301 -7.1250 0.0000 -0.0000 -6.4378 48.3912 -0.5406 -0.0000 -0.0000 0.0000 51.6506 -11.3194 11.8138 -60.5062 56.4433 -34.7626 0.0000 -0.0000 -20.2300 -29.5056 22.6312 -12.2848 7.1250 -0.0000 -0.0000 -0.3241 -4.3845 -0.2984
0.6533 17.7566 0.0506 175.6530 89.1471 -164.4880 0.0000 0.0000 0.0000 -16.1254 -25.7875 -0.8618 0.0000 0.0000 0.0000 -0.6714 18.8992 -20.1890 0.1758 -2.7011 -7.4476 0.0000 0.0000 0.0000 13.8370 21.1714 -10.2969 -0.5489 -4.7463 13.1864 0.1037 -19.0787 -26.1455 -0.3494 3.7979 -10.5086 -3.3607 -2.3891 -14.1103 1.0901 -2.1105 -10.9206 2.7822 -0.5275 -3.4927 -5.5711 -2.1591 -9.8330 8.6075 -3.4061 17.9783 3.4461 -1.1511 7.3635 -0.0000 -0.0000 0.0000 -61.4560 10.5322 -11.3721 54.7128 -54.7280 -29.9814 -0.0000 0.0000 -33.2057 20.8392 17.3805 6.4870 -7.1250 0.0000 -0.0000 -6.9083 48.3740 -0.5775 -0.0000 -0.0000 0.0000 52.7641 -11.9956 12.0988 -60.2775 56.3834 -34.5720 0.0000 -0.0000 -18.5314 -29.4422 23.2567 -12.5642 7.1250 -0.0000 -0.0000 -0.1928 -3.7131 -0.1799
0.6518 17.7573 0.0703 175.8850 88.9383 -164.3890 0.0000 0.0000 0.0000 -16.0701 -25.9383 -0.6988 0.0000 -0.0000 -0.0000 -0.6826 18.9642 -20.1803 0.1922 -2.8234 -7.7874 0.0000 0.0000 0.0000 14.0218 20.9218 -10.1915 -0.5499 -4.7505 13.1983 0.1010 -19.0499 -26.1265 -0.3416 3.7557 -10.3905 -3.3790 -2.3737 -13.9399 1.0536 -2.1128 -10.7441 2.7558 -0.5420 -3.3919 -5.6927 -2.2443 -9.9884 8.7131 -3.5137 17.8246 3.4882 -1.2029 7.3539 0.0000 -0.0000 0.0000 -62.5526 10.9226 -11.2023 54.6889 -54.7200 -29.9618 -0.0000 0.0000 -32.7591 20.5862 17.3743 6.3995 -7.1250 0.0000 -0.0000 -7.1481 48.3301 -0.5900 0.0000 -0.0000 0.0000 53.8834 -12.6989 12.2934 -59.8989 56.2829 -34.2569 0.0000 -0.0000 -16.8838 -29.4971 23.8777 -12.8978 7.1250 -0.0000 -0.0000 -0.1326 -3.0220 -0.1254
0.6518 17.7593 0.0862 177.9320 88.7744 -162.3980 0.0000 0.0000 0.0000 -15.9737 -26.0587 -0.6191 0.0000 -0.0000 -0.0000 -0.7230 19.1240 -20.0010 0.2234 -3.0423 -8.3965 0.0000 0.0000 0.0000 14.1932 20.6090 -10.2064 -0.5522 -4.7602 13.2259 0.0725 -18.8652 -26.0996 -0.3459 3.7792 -10.4562 -3.3306 -2.4505 -13.8672 1.1385 -2.2300 -10.6618 2.8054 -0.6074 -3.3310 -5.8816 -2.1854 -9.8803 8.7383 -3.4014 17.6477 3.5364 -1.1667 7.2715 0.0000 0.0000 0.0000 -63.8206 11.6622 -11.2977 54.7025 -54.7246 -29.9730 -0.0000 0.0000 -32.4523 20.2222 17.2795 6.2443 -7.1250 0.0000 -0.0000 -7.4699 48.1780 -0.5887 0.0000 0.0000 0.0000 54.8255 -13.2745 12.7778 -59.4161 56.1523 -33.8557 0.0000 -0.0000 -15.2649 -29.1993 24.2027 -12.9046 7.1250 -0.0000 -0.0000 0.0983 -2.7357 0.0935
0.6512 17.7608 0.1027 176.8440 88.6846 -163.5630 0.0000 0.0000 0.0000 -15.9642 -26.1209 -0.5269 0.0000 -0.0000 -0.0000 -0.7435 19.2101 -19.9194 0.2357 -3.1248 -8.6265 0.0000 0.0000 0.0000 14.2853 20.3359 -10.2088 -0.5546 -4.7703 13.2546 0.0796 -18.7999 -25.9465 -0.3747 3.9317 -10.8847 -3.3876 -2.5303 -13.7574 1.1944 -2.3363 -10.6593 2.8872 -0.6563 -3.3750 -5.8964 -2.1047 -9.4523 8.6122 -3.2664 17.3627 3.5058 -1.1283 7.0899 0.0000 0.0000 0.0000 -65.0257 12.4986 -11.3893 54.6264 -54.6991 -29.9108 -0.0000 0.0000 -32.0055 19.6406 17.1275 5.9998 -7.1250 0.0000 -0.0000 -7.9814 47.9359 -0.5816 0.0000 0.0000 0.0000 55.7865 -13.9904 13.3352 -58.8808 56.0043 -33.4115 0.0000 -0.0000 -13.8431 -28.9215 24.3957 -12.8553 7.1250 -0.0000 -0.0000 0.2965 -2.5890 0.2828
0.6499 17.7605 0.1194 175.7370 88.6037 -164.7720 0.0000 0.0000 0.0000 -15.9691 -26.1679 -0.4107 0.0000 -0.0000 -0.0000 -0.7580 19.2708 -19.8609 0.2374 -3.1357 -8.6568 0.0000 0.0000 0.0000 14.3629 20.2064 -10.1370 -0.5567 -4.7795 13.2807 0.0543 -18.6547 -25.9519 -0.3603 3.8561 -10.6722 -3.3847 -2.4505 -13.6744 1.0899 -2.2452 -10.5463 2.7865 -0.6221 -3.3073 -5.8516 -2.1772 -9.2811 8.5992 -3.3653 17.0708 3.4805 -1.1833 6.9725 -0.0000 -0.0000 0.0000 -65.9874 12.9829 -11.0199 54.5413 -54.6706 -29.8414 -0.0000 0.0000 -31.4887 19.6018 17.1267 5.9868 -7.1250 0.0000 -0.0000 -8.0181 47.9296 -0.5831 -0.0000 -0.0000 0.0000 56.9451 -14.8778 13.5852 -58.2615 55.8286 -32.8986 0.0000 -0.0000 -12.6368 -29.1529 24.7143 -13.1275 7.1250 -0.0000 -0.0000 0.2051 -2.1902 0.1971
0.6490 17.7615 0.1358 177.2270 88.4994 -163.3290 0.0000 0.0000 0.0000 -15.8681 -26.2325 -0.3538 0.0000 0.0000 0.0000 -0.7492 19.2306 -19.8895 0.2197 -3.0174 -8.3272 0.0000 0.0000 0.0000 14.4917 20.1783 -10.0955 -0.5580 -4.7848 13.2957 0.0456 -18.6532 -26.0230 -0.3450 3.7740 -10.4416 -3.3117 -2.3789 -13.6412 1.0146 -2.1724 -10.3884 2.6732 -0.6032 -3.1641 -5.8824 -2.2599 -9.3348 8.6925 -3.4797 16.8152 3.5016 -1.2372 6.9112 0.0000 -0.0000 0.0000 -66.9788 13.3596 -10.7356 54.4227 -54.6306 -29.7446 -0.0000 0.0000 -31.1085 19.3942 17.1144 5.9147 -7.1250 0.0000 -0.0000 -8.2112 47.8871 -0.5886 0.0000 -0.0000 0.0000 58.0880 -15.6345 13.8133 -57.5191 55.6118 -32.2852 0.0000 -0.0000 -11.3465 -29.2941 25.0458 -13.3608 7.1250 -0.0000 -0.0000 0.1718 -1.7974 0.1664
0.6494 17.7620 0.1505 177.9230 88.3826 -162.7040 0.0000 0.0000 0.0000 -15.8113 -26.3071 -0.2577 0.0000 0.0000 0.0000 -0.7623 19.2859 -19.8378 0.2502 -3.2184 -8.8873 0.0000 0.0000 0.0000 14.6206 20.0628 -10.0271 -0.5579 -4.7845 13.2950 0.0474 -18.6614 -26.0198 -0.3328 3.7074 -10.2550 -3.3157 -2.4134 -13.5460 1.0531 -2.2326 -10.2709 2.7101 -0.6409 -3.0820 -5.9109 -2.2321 -9.2756 8.6685 -3.4249 16.5408 3.4992 -1.2226 6.8086 -0.0000 0.0000 0.0000 -68.1481 13.8480 -10.8162 54.2132 -54.5596 -29.5739 -0.0000 0.0000 -30.8508 18.7996 17.2012 5.7487 -7.1250 0.0000 -0.0000 -8.7968 47.8916 -0.6322 -0.0000 0.0000 0.0000 59.0441 -16.2061 14.2298 -56.6328 55.3438 -31.5549 0.0000 -0.0000 -10.1040 -29.1805 25.3145 -13.4296 7.1250 -0.0000 -0.0000 0.2826 -1.5328 0.2749
0.6485 17.7615 0.1655 179.4710 88.2753 -161.2310 0.0000 0.0000 0.0000 -15.7180 -26.3658 -0.1751 0.0000 0.0000 0.0000 -0.7699 19.3283 -19.8302 0.2643 -3.3073 -9.1355 0.0000 0.0000 0.0000 14.7792 20.0020 -9.9298 -0.5571 -4.7810 13.2851 0.0313 -18.6075 -26.0776 -0.3099 3.5791 -9.8955 -3.2874 -2.4441 -13.4219 1.1055 -2.2905 -10.1768 2.7447 -0.6769 -3.0414 -6.0262 -2.2214 -9.1551 8.7040 -3.3918 16.2710 3.5294 -1.2196 6.7008 0.0000 -0.0000 0.0000 -69.2485 14.2562 -10.8947 53.6222 -54.3559 -29.0930 -0.0000 0.0000 -30.6737 18.4286 17.2289 5.6364 -7.1250 0.0000 -0.0000 -9.1545 47.8673 -0.6527 0.0000 -0.0000 0.0000 60.0429 -16.6899 14.4742 -55.5428 55.0003 -30.6602 0.0000 -0.0000 -8.7665 -29.1148 25.6377 -13.5484 7.1250 -0.0000 -0.0000 0.3735 -1.1985 0.3656
